<svg width="238" height="86" viewBox="0 0 238 86" fill="none" xmlns="http://www.w3.org/2000/svg">
<path d="M210.414 40.802C215.544 40.802 219.703 36.6714 219.703 31.576C219.703 26.4806 215.544 22.35 210.414 22.35C205.284 22.35 201.125 26.4806 201.125 31.576C201.125 36.6714 205.284 40.802 210.414 40.802Z" fill="#D15C22"/>
<path d="M210.365 30.484L211.394 29.483C211.524 29.3589 211.697 29.2897 211.877 29.2897C212.057 29.2897 212.23 29.3589 212.36 29.483C212.626 29.742 212.626 30.162 212.36 30.421L210.89 31.842C210.829 31.9146 210.753 31.9739 210.668 32.0162C210.583 32.0586 210.49 32.0831 210.395 32.0884C210.3 32.0936 210.205 32.0794 210.115 32.0467C210.026 32.014 209.944 31.9634 209.875 31.898L206.326 28.447C206.263 28.3863 206.213 28.3134 206.179 28.2328C206.144 28.1522 206.127 28.0656 206.127 27.978C206.127 27.8904 206.144 27.8037 206.179 27.7232C206.213 27.6426 206.263 27.5697 206.326 27.509C206.456 27.3849 206.629 27.3157 206.809 27.3157C206.989 27.3157 207.162 27.3849 207.292 27.509L210.358 30.477L210.365 30.484ZM206.809 30.001C207.187 30.001 207.495 30.337 207.495 30.757V35.083C207.495 35.503 207.187 35.839 206.809 35.839C206.431 35.839 206.123 35.503 206.123 35.083V30.757C206.123 30.337 206.431 30.001 206.809 30.001V30.001ZM214.019 27.32C214.111 27.3227 214.202 27.3435 214.285 27.3812C214.369 27.4189 214.445 27.4728 214.508 27.5398C214.571 27.6067 214.62 27.6855 214.653 27.7715C214.686 27.8575 214.701 27.9491 214.698 28.041V35.111C214.702 35.2035 214.687 35.2958 214.655 35.3827C214.623 35.4695 214.574 35.549 214.511 35.6167C214.447 35.6845 214.371 35.739 214.287 35.7771C214.203 35.8153 214.112 35.8363 214.019 35.839C213.927 35.8372 213.835 35.817 213.751 35.7797C213.666 35.7424 213.589 35.6887 213.526 35.6216C213.462 35.5546 213.412 35.4756 213.379 35.3891C213.346 35.3027 213.33 35.2105 213.333 35.118V28.048C213.329 27.9549 213.344 27.862 213.377 27.7748C213.409 27.6875 213.459 27.6076 213.523 27.5398C213.587 27.472 213.664 27.4176 213.749 27.3799C213.834 27.3422 213.926 27.3218 214.019 27.32V27.32Z" fill="white"/>
<path d="M122.494 36.756C123.255 36.5204 124.078 36.5959 124.783 36.966C125.222 37.2106 125.59 37.5657 125.85 37.9963C126.11 38.4268 126.252 38.9178 126.264 39.4205C126.275 39.9232 126.155 40.4201 125.915 40.862C125.675 41.3039 125.324 41.6753 124.896 41.9396C124.468 42.2038 123.979 42.3516 123.476 42.3683C122.974 42.385 122.475 42.27 122.031 42.0347C121.587 41.7995 121.211 41.4521 120.943 41.0272C120.674 40.6022 120.521 40.1143 120.499 39.612C120.477 38.984 120.66 38.3659 121.02 37.8508C121.379 37.3356 121.897 36.9514 122.494 36.756V36.756ZM90.5811 38.065C92.1631 38.086 93.7451 38.051 95.3341 38.086C97.5461 43.952 99.8141 49.804 102.054 55.656C104.329 49.811 106.569 43.938 108.795 38.072H113.541C114.633 46.346 115.781 54.606 116.88 62.873C115.34 62.873 113.8 62.887 112.26 62.873C111.56 57.553 110.867 52.24 110.125 46.934L104.294 62.88C102.88 62.88 101.473 62.894 100.059 62.88C98.1271 57.546 96.1671 52.226 94.2211 46.906C93.5281 52.226 92.8001 57.553 92.1001 62.88C90.4691 62.894 88.8381 62.873 87.2141 62.887V62.782C87.6131 60.451 87.8581 58.092 88.2011 55.754C88.9851 49.86 89.8111 43.966 90.5811 38.072V38.065ZM157.039 40.606C157.48 40.655 158.019 40.466 158.397 40.697C158.418 42.167 158.397 43.651 158.404 45.128C160.294 45.156 162.177 45.128 164.06 45.142C164.067 46.71 164.067 48.278 164.06 49.853H158.369V56.335C158.376 57.042 158.481 57.84 159.034 58.344C159.706 58.974 160.735 58.988 161.575 58.764C162.296 58.589 162.835 58.057 163.36 57.567C163.64 58.897 163.983 60.206 164.27 61.529C163.79 62.1404 163.184 62.6408 162.493 62.996C161.802 63.3513 161.042 63.5529 160.266 63.587C158.964 63.657 157.606 63.482 156.465 62.817C155.46 62.2302 154.711 61.2889 154.365 60.178C153.966 59.051 153.945 57.833 153.959 56.643V49.853H150.914C150.97 49.279 150.711 48.586 151.145 48.117C153.105 45.611 155.086 43.119 157.039 40.606V40.606ZM138.776 44.631C141.121 44.267 143.676 44.939 145.391 46.619C146.931 48.096 147.617 50.273 147.631 52.366V62.88H143.235V53.304C143.228 52.163 142.885 50.959 142.01 50.175C140.316 48.656 137.418 49.027 135.99 50.735C135.654 51.155 135.381 51.652 135.395 52.205V62.88H130.999V45.023H135.255L135.262 46.752C135.913 45.436 137.39 44.806 138.783 44.631H138.776ZM170.171 46.794C171.257 45.8371 172.557 45.1537 173.961 44.8006C175.364 44.4475 176.832 44.4349 178.242 44.764C180.3 45.226 182.113 46.563 183.261 48.32C184.647 50.392 185.095 52.975 184.822 55.432C180.426 55.488 176.023 55.439 171.627 55.453C171.749 56.078 172.022 56.6637 172.422 57.159C172.822 57.6543 173.338 58.0443 173.923 58.295C176.044 59.156 178.529 58.96 180.566 57.973C181.224 57.672 181.735 57.154 182.274 56.685C182.694 57.784 183.156 58.855 183.555 59.961C183.38 60.465 182.932 60.85 182.561 61.228C180.531 62.999 177.668 63.489 175.071 63.132C173.799 62.9844 172.572 62.5672 171.474 61.9081C170.375 61.2491 169.43 60.3633 168.701 59.31C166.23 55.502 166.769 49.888 170.171 46.794V46.794ZM174.581 49.202C173.286 49.538 172.089 50.504 171.816 51.862C174.686 51.862 177.556 51.883 180.426 51.862C180.285 51.0329 179.822 50.293 179.138 49.804C177.822 48.894 176.093 48.817 174.588 49.202H174.581ZM195.42 45.079C196.12 44.6884 196.914 44.5011 197.715 44.5382C198.515 44.5753 199.289 44.8354 199.949 45.289C200.194 45.499 200.516 45.73 200.439 46.087C200.313 47.382 200.026 48.663 199.879 49.958C199.354 49.6113 198.76 49.3808 198.139 49.2818C197.517 49.1829 196.881 49.2177 196.274 49.384C194.762 49.776 193.572 51.274 193.705 52.842V62.88H189.246V45.023H193.565C193.579 45.765 193.565 46.514 193.572 47.263C193.926 46.3485 194.577 45.5793 195.42 45.079V45.079ZM121.22 45.254C122.662 45.275 124.111 45.261 125.56 45.261V63.237C124.118 63.237 122.669 63.251 121.227 63.237C121.227 57.245 121.241 51.253 121.22 45.254V45.254Z" fill="#222222"/>
<path d="M22.666 60.4512H18.4883L17.5391 63H17.1934L20.3867 54.4688H20.7734L23.9668 63H23.6211L22.666 60.4512ZM18.6055 60.1348H22.5488L20.5801 54.8496L18.6055 60.1348ZM26.627 62.4727L27.0137 61.0664L29.0293 54.4688H29.3809L31.3848 61.0664L31.7656 62.4727L32.1641 61.0664L33.9219 54.4688H34.2676L31.9707 63H31.6133L29.498 55.8867L29.1992 54.9844L28.9121 55.8867L26.7793 63H26.4219L24.1191 54.4688H24.4707L26.2402 61.0664L26.627 62.4727ZM40.4023 58.7695H36.125V62.6836H41V63H35.8086V54.4688H41V54.7852H36.125V58.4531H40.4023V58.7695ZM47.75 60.9551C47.75 60.5918 47.6641 60.2852 47.4922 60.0352C47.3242 59.7812 47.0566 59.5586 46.6895 59.3672C46.3262 59.1719 45.7754 58.9727 45.0371 58.7695C44.2988 58.5664 43.7441 58.3613 43.373 58.1543C43.0059 57.9473 42.7363 57.707 42.5645 57.4336C42.3926 57.1602 42.3066 56.8281 42.3066 56.4375C42.3066 55.8164 42.5684 55.3145 43.0918 54.9316C43.6152 54.5449 44.2969 54.3516 45.1367 54.3516C45.6836 54.3516 46.1738 54.459 46.6074 54.6738C47.0449 54.8848 47.3828 55.1836 47.6211 55.5703C47.8594 55.9531 47.9785 56.3867 47.9785 56.8711H47.6621C47.6621 56.2344 47.4277 55.709 46.959 55.2949C46.4902 54.877 45.8828 54.668 45.1367 54.668C44.3867 54.668 43.7793 54.8359 43.3145 55.1719C42.8535 55.5039 42.623 55.9219 42.623 56.4258C42.623 56.9375 42.8242 57.3496 43.2266 57.6621C43.6289 57.9746 44.293 58.252 45.2188 58.4941C46.1445 58.7324 46.8223 59.0098 47.252 59.3262C47.7988 59.7285 48.0723 60.2676 48.0723 60.9434C48.0723 61.373 47.9512 61.7539 47.709 62.0859C47.4668 62.4141 47.123 62.668 46.6777 62.8477C46.2324 63.0273 45.7324 63.1172 45.1777 63.1172C44.5605 63.1172 44.0059 63.0156 43.5137 62.8125C43.0215 62.6055 42.6504 62.3125 42.4004 61.9336C42.1543 61.5547 42.0312 61.1074 42.0312 60.5918H42.3477C42.3477 61.291 42.6094 61.834 43.1328 62.2207C43.6562 62.6074 44.3379 62.8008 45.1777 62.8008C45.9238 62.8008 46.5391 62.6309 47.0234 62.291C47.5078 61.9473 47.75 61.502 47.75 60.9551ZM55.7832 59.373C55.7832 60.1113 55.6504 60.7656 55.3848 61.3359C55.123 61.9023 54.748 62.3418 54.2598 62.6543C53.7715 62.9629 53.209 63.1172 52.5723 63.1172C51.6113 63.1172 50.834 62.7754 50.2402 62.0918C49.6465 61.4082 49.3496 60.4863 49.3496 59.3262V58.0957C49.3496 57.3613 49.4805 56.709 49.7422 56.1387C50.0078 55.5684 50.3848 55.1289 50.873 54.8203C51.3652 54.5078 51.9277 54.3516 52.5605 54.3516C53.1973 54.3516 53.7598 54.5078 54.248 54.8203C54.7402 55.1289 55.1191 55.5703 55.3848 56.1445C55.6504 56.7148 55.7832 57.3652 55.7832 58.0957V59.373ZM55.4668 58.084C55.4668 57.0527 55.2051 56.2266 54.6816 55.6055C54.1582 54.9805 53.4512 54.668 52.5605 54.668C51.6816 54.668 50.9805 54.9785 50.457 55.5996C49.9336 56.2168 49.6719 57.0586 49.6719 58.125V59.373C49.6719 60.0527 49.7891 60.6543 50.0234 61.1777C50.2617 61.6973 50.5996 62.0977 51.0371 62.3789C51.4746 62.6602 51.9863 62.8008 52.5723 62.8008C53.4629 62.8008 54.168 62.4902 54.6875 61.8691C55.207 61.248 55.4668 60.4004 55.4668 59.3262V58.084ZM58.1855 54.4688L61.6953 62.5371L65.2168 54.4688H65.6797V63H65.3633V54.9375L61.8242 63H61.5723L58.0508 54.9785V63H57.7344V54.4688H58.1855ZM72.6172 58.7695H68.3398V62.6836H73.2148V63H68.0234V54.4688H73.2148V54.7852H68.3398V58.4531H72.6172V58.7695Z" fill="black"/>
</svg>
